804842437b2be0a1604ce33c6b08c800 *tests/data/fate/matroska-avoid-negative-ts.matroska
973070 tests/data/fate/matroska-avoid-negative-ts.matroska
#extradata 0:       22, 0x2885037c
#tb 0: 1/1000
#media_type 0: video
#codec_id 0: mpeg2video
#dimensions 0: 352x288
#sar 0: 12/11
#tb 1: 1/1000
#media_type 1: audio
#codec_id 1: mp3
#sample_rate 1: 44100
#channel_layout_name 1: mono
0,        -37,         43,       40,     9156, 0xe5bd034a, S=1,       40
1,          0,          0,       26,      417, 0x7198c15e
0,          3,          3,       40,     1740, 0x29ac4480, F=0x0
1,         26,         26,       26,      417, 0x3c67c32d
0,         43,        123,       40,     3672, 0x98652013, F=0x0
1,         52,         52,       26,      417, 0x8c24b1ca
1,         78,         78,       26,      417, 0x6ee576b7
0,         83,         83,       40,     2532, 0xa2c42769, F=0x0
1,        104,        104,       26,      417, 0x407603db
0,        123,        203,       40,     1728, 0xae823d3b, F=0x0
1,        130,        130,       26,      417, 0xcf2804d2
1,        156,        156,       26,      417, 0xcf2804d2
0,        163,        163,       40,     1028, 0x286ac52a, F=0x0
1,        182,        182,       26,      417, 0xcf2804d2
0,        203,        283,       40,     1916, 0xd378899e, F=0x0
1,        208,        208,       26,      417, 0xcf2804d2
1,        235,        235,       26,      417, 0xcf2804d2
0,        243,        243,       40,     1168, 0x424e12cf, F=0x0
1,        261,        261,       26,      417, 0xcf2804d2
0,        283,        363,       40,     1660, 0x5cec156c, F=0x0
1,        287,        287,       26,      417, 0xcf2804d2
1,        313,        313,       26,      417, 0xef163d04
0,        323,        323,       40,     1004, 0xac0dce29, F=0x0
1,        339,        339,       26,      417, 0x2a009b3a
0,        363,        443,       40,     3008, 0x0fc798bf, F=0x0
1,        365,        365,       26,      417, 0xbedccb9d
1,        365,        365,       26,      417, 0x2214be3f
1,        391,        391,       26,      417, 0x8953b878
